PathFileType	4	(X/Y/Z)	/Users/visionmauri/4_3_2_f_1_Sports2D/4_3_2_f_1_Sports2D_m_person00.trc
DataRate	CameraRate	NumFrames	NumMarkers	Units	OrigDataRate	OrigDataStartFrame	OrigNumFrames
30.0	30.0	10	22	m	30.0	315	360
Frame#	Time	Hip			RHip			RKnee			RAnkle			RBigToe			RSmallToe			RHeel			LHip			LKnee			LAnkle			LBigToe			LSmallToe			LHeel			Neck			Head			Nose			RShoulder			RElbow			RWrist			LShoulder			LElbow			LWrist			
		X1	Y1	Z1	X2	Y2	Z2	X3	Y3	Z3	X4	Y4	Z4	X5	Y5	Z5	X6	Y6	Z6	X7	Y7	Z7	X8	Y8	Z8	X9	Y9	Z9	X10	Y10	Z10	X11	Y11	Z11	X12	Y12	Z12	X13	Y13	Z13	X14	Y14	Z14	X15	Y15	Z15	X16	Y16	Z16	X17	Y17	Z17	X18	Y18	Z18	X19	Y19	Z19	X20	Y20	Z20	X21	Y21	Z21	X22	Y22	Z22
315	10.52924791086351	1.0510829530076482	0.8539874963431063	0.0301	0.9167074905754393	0.8361648593511831	0.0301	0.8355640819991278	0.3558860874111797	0.129	0.7623715372995088	-0.14344594485804865	0.023	0.7183120666278796	-0.3413311414575664	0.2179	0.6444152084242455	-0.31064853605834764	0.1804	0.8003414632699295	-0.23358310176728508	-0.0119	1.193357375059444	0.8122513989186253	0.0301	1.1701084367889911	0.3175328155920946	0.129	1.117761049577886	-0.11126319335630785	0.023	1.1790607257219858	-0.29140995543965276	0.2179	1.2398982851388527	-0.2670824294264836	0.1804	1.0680975798276635	-0.18350306077639156	-0.0119	1.067486340921064	1.5823666907853746	0.0008	1.0456375019683026	1.8603015543836585	0.0655	0.978892578341738	1.6297584034141372	0.1076	0.8357325650028328	1.5128864546527323	-0.01275	0.7051763333904372	1.1997175329820966	0.0702	0.595502511376095	0.9350704087860613	0.1076	1.3101116048897077	1.5003523722097154	-0.01275	1.4444167605244924	1.1489623734117793	0.0702	1.53762710601886	0.8587113022942684	0.1076
316	10.562674094707521	1.0464991790523859	0.8512651605959003	0.0301	0.9115040459308175	0.8373021154722847	0.0301	0.828389428334677	0.35081550138055906	0.129	0.7618071525352613	-0.1438075979186079	0.023	0.7169504317587441	-0.3383106480985846	0.2179	0.6445586882095119	-0.3089681496264425	0.1804	0.7985676789406962	-0.23358139530149327	-0.0119	1.1912057011763115	0.8130399281162912	0.0301	1.1717197867938889	0.3168909687500906	0.129	1.1176249048641755	-0.1127605941455434	0.023	1.181987654805157	-0.29295908681143207	0.2179	1.242149441375398	-0.26732183461903103	0.1804	1.0663923122457688	-0.18277919698595604	-0.0119	1.0613037185042373	1.5819834897644507	0.0008	1.0350252678043295	1.856647745909291	0.0655	0.9698322964437952	1.6227961524299361	0.1076	0.8265029392270872	1.5110766489232252	-0.01275	0.7009029204633397	1.2013187866465491	0.0702	0.5960905482805643	0.9357492427587987	0.1076	1.3031726956759333	1.5008030739507876	-0.01275	1.4411763145836904	1.148851965783462	0.0702	1.5361210980505633	0.8584973256737809	0.1076
317	10.596100278551532	1.0449907422889304	0.8523011031625598	0.0301	0.9084326643606572	0.8402921643955611	0.0301	0.8271394647902925	0.3501597219895636	0.129	0.7609274797672075	-0.14345542248562473	0.023	0.7202950460247064	-0.3374388214036575	0.2179	0.6462736290533403	-0.3091138074586324	0.1804	0.7965081109388307	-0.2330276472570802	-0.0119	1.1901869194968002	0.8150015206579928	0.0301	1.174755311203854	0.3179366133305975	0.129	1.1173869459887318	-0.11276367761091773	0.023	1.185394479034432	-0.29408960556293545	0.2179	1.242968320068821	-0.26715503677972235	0.1804	1.0657378094630796	-0.18350327782670717	-0.0119	1.0545401523403641	1.5830217934709374	0.0008	1.0249695449102896	1.8509241306732607	0.0655	0.9642873161962486	1.6157048899254984	0.1076	0.8182249012521235	1.5082344368955047	-0.01275	0.6985851606650333	1.2015723161573728	0.0702	0.5981811972891511	0.9352551750877152	0.1076	1.2982319327097458	1.499676645842145	-0.01275	1.4385404293701265	1.1467952557068146	0.0702	1.5359864605543279	0.858809498285329	0.1076
318	10.629526462395544	1.0456397932658579	0.8577935089291197	0.0301	0.9063732239425154	0.8423176770805993	0.0301	0.8299086171254878	0.35402028656630996	0.129	0.7606886122115042	-0.14303903081513236	0.023	0.7240785735902416	-0.33889325342532645	0.2179	0.6480867243645511	-0.3101637829709605	0.1804	0.7956392415873215	-0.23126153318629172	-0.0119	1.188415039705957	0.8171016872357274	0.0301	1.1797789150964202	0.31755288653238256	0.129	1.1177425252433795	-0.10894516394933088	0.023	1.1857905636229749	-0.2935200806452695	0.2179	1.2418002252713738	-0.2667431506798312	0.1804	1.0675493980508457	-0.18020548668162756	-0.0119	1.0497160506100283	1.584433425272239	0.0008	1.0149328573402976	1.8456162276114607	0.0655	0.9605980160023688	1.6132761622796667	0.1076	0.8134965148863608	1.5075966959372975	-0.01275	0.6979433458579675	1.2011411345915601	0.0702	0.6000189903447235	0.9350477155035332	0.1076	1.296057620121092	1.495736434854196	-0.01275	1.436436647692021	1.1434875086630563	0.0702	1.5365440687964191	0.8586561706022002	0.1076
319	10.662952646239555	1.0467398832958847	0.8643507274482258	0.0301	0.9043681712807885	0.8406489907155228	0.0301	0.831285227257488	0.35832497920090306	0.129	0.7613753345204024	-0.1421035145153055	0.023	0.7235152267659093	-0.33990921641947247	0.2179	0.6486457976123116	-0.31038710041176387	0.1804	0.7968402409394246	-0.22751416894156848	-0.0119	1.1865211820767059	0.8167963646857971	0.0301	1.1859275599745405	0.31393173676064046	0.129	1.1177825301646314	-0.10302571590432882	0.023	1.1825862677901098	-0.29056317509786284	0.2179	1.239854576005011	-0.26586571768726885	0.1804	1.0693397778536449	-0.17035678071078028	-0.0119	1.0478499494045885	1.5850282407623077	0.0008	1.0058916273024598	1.8441384767379108	0.0655	0.9575440739067076	1.6170640402672283	0.1076	0.8129130619206151	1.5096967711546005	-0.01275	0.6981677435659482	1.2013088919037456	0.0702	0.6005988985852992	0.9356083347910129	0.1076	1.2946687643857437	1.4941627463963345	-0.01275	1.434448935661936	1.141248526725403	0.0702	1.5361681459157615	0.8579314848326672	0.1076
320	10.696378830083566	1.0472471490073496	0.8656044410815544	0.0301	0.9036174597344054	0.8360354331480669	0.0301	0.830796797362176	0.3601262928355147	0.129	0.7619000637172046	-0.14105929428175729	0.023	0.7199178532818201	-0.34017864887868376	0.2179	0.6479766501170761	-0.3104969275892329	0.1804	0.7987432117224503	-0.22212555857116667	-0.0119	1.1867618555558206	0.8135416920712552	0.0301	1.190873422305557	0.30985831804685965	0.129	1.1151647420899502	-0.09892284214503938	0.023	1.180548236506107	-0.2877036572751581	0.2179	1.2380424456448997	-0.26420896371383024	0.1804	1.0670084231751351	-0.16110426595407085	-0.0119	1.0456757871532238	1.5846167219617138	0.0008	1.0006958883859745	1.8459084886761923	0.0655	0.9545827910772139	1.6197257309110418	0.1076	0.8134883220582947	1.5101466808776778	-0.01275	0.6975827616880013	1.2005737159236516	0.0702	0.6004977504284935	0.9359346279012399	0.1076	1.2933498837428181	1.4966363753325007	-0.01275	1.4309129374594938	1.1409266150054054	0.0702	1.5353210532335624	0.8579625325373222	0.1076
321	10.729805013927578	1.0470453823322454	0.8600458525170454	0.0301	0.9046925362915764	0.8311026817986832	0.0301	0.8313653657239005	0.3605235726371874	0.129	0.7619582088900777	-0.14114177690403876	0.023	0.7184302983852574	-0.3413803045230803	0.2179	0.6473462659527424	-0.31127662535709144	0.1804	0.7994189300121419	-0.21883660743461966	-0.0119	1.1880067894482895	0.809183014273118	0.0301	1.19384278200828	0.30819100170638347	0.129	1.1098470950871824	-0.09844005051385755	0.023	1.1821743537348581	-0.2884664768284409	0.2179	1.2359450611686826	-0.2628340664461819	0.1804	1.0601180045103378	-0.159090753822305	-0.0119	1.0414616805720858	1.5834133867561069	0.0008	1.001044862025001	1.8465182516290541	0.0655	0.9530742954174342	1.6124441698058487	0.1076	0.8120474613549283	1.5057114961510323	-0.01275	0.6962801190921182	1.19681447174421	0.0702	0.6004022188305834	0.9352003988032864	0.1076	1.2929730404320146	1.4975887518960915	-0.01275	1.4266936524053264	1.1411439900447384	0.0702	1.5347701498511606	0.858974291887088	0.1076
322	10.763231197771589	1.0471562127188323	0.8537517792082556	0.0301	0.9071181516140054	0.827720335540811	0.0301	0.833260032815959	0.361826862830386	0.129	0.7619416116488287	-0.14214770310823965	0.023	0.7208052329959498	-0.34383564392165133	0.2179	0.6477935673576279	-0.3120261324089296	0.1804	0.7999091239621294	-0.2225109402638815	-0.0119	1.1875873997317237	0.8062078924692002	0.0301	1.1959264850243325	0.3084552724594107	0.129	1.1052245676187953	-0.10105654520875236	0.023	1.1826309781025686	-0.29290096321233816	0.2179	1.2330479233487168	-0.2638819931984925	0.1804	1.05271211851551	-0.16246026614582573	-0.0119	1.0386409011225182	1.5812548367904335	0.0008	1.0041516235013832	1.8438197352869212	0.0655	0.9522610482178324	1.5995293288982273	0.1076	0.8095875899209888	1.500133318246251	-0.01275	0.6964322577091705	1.191834801705988	0.0702	0.6000043511018578	0.9335341615475568	0.1076	1.2925884687312308	1.4952869788665284	-0.01275	1.4253851779499422	1.1408096681843318	0.0702	1.5344054298865202	0.8596619184156468	0.1076
323	10.7966573816156	1.0497002110751008	0.8528340506350254	0.0301	0.9121747828722567	0.8279995110661207	0.0301	0.8351825826221304	0.36424493309973105	0.129	0.7610090451112206	-0.14276623778329392	0.023	0.7242153808729382	-0.3458812761960292	0.2179	0.6488842326877801	-0.3113445022655513	0.1804	0.8024283800533363	-0.23134158141998382	-0.0119	1.1877138516446406	0.8071480798224631	0.0301	1.1971121678413783	0.3083697752031122	0.129	1.1033808936869547	-0.10532085372403417	0.023	1.176458528194211	-0.2980519191089398	0.2179	1.2280840492626897	-0.2677193100308736	0.1804	1.0483731349874994	-0.1666998366512876	-0.0119	1.039774416782694	1.5789031716582786	0.0008	1.0064704720586728	1.8401274338567193	0.0655	0.9498417664669703	1.5925670900105933	0.1076	0.8092062680471103	1.4986641387165096	-0.01275	0.6987576607146425	1.1892238980890508	0.0702	0.5990519636095608	0.9320903185222162	0.1076	1.291303232240904	1.493728095361158	-0.01275	1.4282866086885697	1.1405507680609543	0.0702	1.5343011512039302	0.8590878216258743	0.1076
324	10.83008356545961	1.0546883927694717	0.8562050688796289	0.0301	0.9197995300953153	0.8308755978740531	0.0301	0.837169644898232	0.3650147177905134	0.129	0.7591763828157285	-0.14357772394208776	0.023	0.7255726119521532	-0.3466109489451304	0.2179	0.6490583667797871	-0.3092987463354148	0.1804	0.804614587888317	-0.2373727408394222	-0.0119	1.1917225714241941	0.8099548844590796	0.0301	1.196158564523577	0.30561849362809845	0.129	1.101702307672844	-0.10974544938115258	0.023	1.1661859981578189	-0.3016356157022463	0.2179	1.2201427297250806	-0.27208607337589585	0.1804	1.0463499164327048	-0.17122758888075232	-0.0119	1.043161042831596	1.5778578971543522	0.0008	1.0073223317564424	1.837777718681757	0.0655	0.9484505831008115	1.593874400607926	0.1076	0.8115158136345517	1.4998399719681434	-0.01275	0.7015369267314123	1.1892318822634584	0.0702	0.5987510402763839	0.9325551989619948	0.1076	1.2911737931830896	1.4933738429797876	-0.01275	1.4329772534205825	1.141343667115263	0.0702	1.5350790446979021	0.8581693669174321	0.1076
